PathFileType	4	(X/Y/Z)	3_coords_data.trc
DataRate	CameraRate	NumFrames	NumMarkers	Units	OrigDataRate	OrigDataStartFrame	OrigNumFrames
30.0	30.0	5	21	m	30.0	30	58
Frame#	Time	THUMB_TIP	THUMB_IP	THUMB_MCP	THUMB_CMC	INDEX_TIP	INDEX_DIP	INDEX_PIP	INDEX_MCP	MIDDLE_TIP	MIDDLE_DIP	MIDDLE_PIP	MIDDLE_MCP	RING_TIP	RING_DIP	RING_PIP	RING_MCP	PINKY_TIP	PINKY_DIP	PINKY_PIP	PINKY_MCP	WRIST
X1	Y1	Z1	X2	Y2	Z2	X3	Y3	Z3	X4	Y4	Z4	X5	Y5	Z5	X6	Y6	Z6	X7	Y7	Z7	X8	Y8	Z8	X9	Y9	Z9	X10	Y10	Z10	X11	Y11	Z11	X12	Y12	Z12	X13	Y13	Z13	X14	Y14	Z14	X15	Y15	Z15	X16	Y16	Z16	X17	Y17	Z17	X18	Y18	Z18	X19	Y19	Z19	X20	Y20	Z20	X21	Y21	Z21
28	0.9666666666666625	0.4726537647546808	-0.0210419088676157	-0.17222071300635056	0.479883029783741	-0.027088363140409966	-0.1512641360466795	0.47252562219332517	-0.03150081184215925	-0.12134392799254101	0.4728014189272777	-0.032841942319581374	-0.07675676274059806	0.5665861462313337	0.027819092249302235	-0.173091522708767	0.556058876274524	0.018137615628706638	-0.16198091526806813	0.5405126311497409	0.006501467008796613	-0.14601457126527506	0.5141190887903845	-0.011536760162636495	-0.1178784845395659	0.5873575553387099	0.045480187392763605	-0.14701505038868662	0.5760991882219698	0.03451242564817758	-0.13801741891264258	0.5563403718253607	0.018907991434212734	-0.12333748848136555	0.5242929209674081	-0.002604798226637395	-0.10083618417438933	0.6049799388195035	0.03785942636045703	-0.09924527190240606	0.5896766735990968	0.029134507520407582	-0.09541305781281695	0.5675240724680237	0.01879564777073317	-0.09066435049354105	0.5316470035232989	0.001554723669616176	-0.08357158699297329	0.5998604773870372	0.026450887053271588	-0.05346416834516676	0.5838602643660413	0.020577911560613615	-0.05504573154194248	0.5641770790878148	0.01377362689434325	-0.057707675659193325	0.5320197494359091	-0.0015164387417139213	-0.06345254236815456	0.4622830810018608	-0.023011742144276925	-0.051989820119430985
29	0.9999999999999956	0.47271513989291336	-0.021106684479253568	-0.17220357957839416	0.47995780787100717	-0.027147249744639668	-0.15124993235807221	0.47258092875382873	-0.03154427427393469	-0.12133224812651255	0.4728197332704076	-0.03285458601948732	-0.0767439530757672	0.5665528448119089	0.027824512641447585	-0.17309576043530728	0.5560540430322662	0.018116368058597287	-0.16198148628220826	0.5405267680166507	0.0064644153532853466	-0.146008209794818	0.5141496319409204	-0.011582683538846728	-0.11786242844094508	0.5873836041228278	0.045479907105186235	-0.14696101898849984	0.5761282383298058	0.034498724088177	-0.13797601145304272	0.5563713912433258	0.01887031411684581	-0.12331895359788492	0.5243109869744159	-0.002629234948350323	-0.10082344762208428	0.604991558100748	0.037829814235875725	-0.0992442940544358	0.5896877050842886	0.029107138802969668	-0.09540932128493895	0.5675399983936477	0.018760171858742125	-0.09065544471939768	0.5316647360314868	0.0015152179092483564	-0.08356334011455957	0.5998361759030423	0.02652418919982613	-0.05345900576850926	0.5838438037692039	0.020630459597514417	-0.05504266763508936	0.564168601204391	0.013805847894658663	-0.05771158092308282	0.5320301402321107	-0.0015355471989142444	-0.06342510644732002	0.4622830810018609	-0.023011742144276925	-0.051989820119430985
30	1.0333333333333288	0.47263104000246237	-0.021240762072653796	-0.17217158320246234	0.479952156087348	-0.027275970529462845	-0.15124367078496376	0.47260695130617336	-0.03163224325745917	-0.12131223489154352	0.47283876015861714	-0.032888457943288874	-0.07672234602288808	0.5664821603988612	0.027769893374703813	-0.1731238749049821	0.5560393495724908	0.018011700304046308	-0.162000684263785	0.5405594924537646	0.006321501746232472	-0.1460093392839933	0.5142127358294893	-0.011730347717287093	-0.11783816180899881	0.5874053716418273	0.0454024286869501	-0.1469242650290738	0.5761719683468277	0.03439130998715989	-0.1379484132371256	0.5564309831377778	0.018734930389383564	-0.12329983546089018	0.5243661081499582	-0.0027628032441623374	-0.1008089670553215	0.6050211080475144	0.03774375176554379	-0.09922256851492561	0.5897271975322702	0.0290007297124365	-0.09539427039035564	0.5675887309345318	0.018636135271960286	-0.09063575614899144	0.5317186716230079	0.0013769983623954651	-0.08355183970929081	0.5997940113475783	0.026611558933400503	-0.05341335564811611	0.5838174443652474	0.020677965970198886	-0.05500765236019345	0.5641581491220231	0.013812585671280964	-0.05768919723040655	0.5320522871294835	-0.001596400392361197	-0.06340410975873811	0.462283081001861	-0.023011742144276925	-0.051989820119430985
31	1.0666666666666622	0.47241369449461734	-0.021373606993064675	-0.17212635358185036	0.4798790196862389	-0.027412782948881387	-0.1512505955463196	0.47259875884910374	-0.03173001467470338	-0.12129764389929759	0.4728368796704778	-0.03293065267922446	-0.07670625721020119	0.566321397178058	0.027743695671436752	-0.17319047089086043	0.5559560172074341	0.017915064765204658	-0.16205687701585103	0.5405541895443465	0.006156299987110092	-0.14604047952671523	0.5142621512903175	-0.01191472797120774	-0.11783050315348204	0.5873622484301159	0.045336730710715756	-0.14693477959034246	0.5761614230613692	0.03428967246331871	-0.13796237661580651	0.5564667339415862	0.018572654088247487	-0.12331641799669335	0.5244084183785725	-0.0029360557850095503	-0.1008266931462134	0.6050534028612861	0.03761354837745967	-0.09921596559942558	0.589768234037163	0.028851210563979213	-0.0953969277545601	0.5676383191528518	0.018463915283209564	-0.09064814444056923	0.5317602905518127	0.0012118405462115955	-0.08358742103768346	0.5997601508564445	0.026663053980191975	-0.05340779441261567	0.5838019532888	0.020684339049955702	-0.055017421131762334	0.564161391087753	0.013767043583019944	-0.05770281846733771	0.532083127730366	-0.0017014033116248273	-0.06341207600590426	0.4622830810018608	-0.023011742144276925	-0.051989820119430985
32	1.0999999999999952	0.47222880637675246	-0.021474402373120483	-0.1721085482725353	0.47977860875137546	-0.027510057553328027	-0.151262173272316	0.4725344145621081	-0.03178803623374682	-0.1212948485842818	0.4728203477730074	-0.032956584177751824	-0.07670289036420064	0.5660756411357042	0.027821667953867424	-0.17329494140175328	0.5557986826738255	0.01791233525785174	-0.16215091832691647	0.5405001201822236	0.006058371917356031	-0.1461057517085002	0.5142572256815467	-0.012014281347825229	-0.11785109216033218	0.5872182260166203	0.04542058309427022	-0.14698855423255086	0.5760614043151391	0.03432386124021769	-0.13802261347794226	0.5564333379176168	0.018518818338979615	-0.12338194483253917	0.5243986571760274	-0.0029947146783244616	-0.10086317382038579	0.6050551049190189	0.03754523733874282	-0.09923557862850707	0.5897745953150463	0.028770391891279723	-0.09542662685458847	0.5676561935371681	0.01835611459756048	-0.09068330415400372	0.5317731722390739	0.0011078846695160571	-0.08363857698612609	0.5997317072106851	0.026712249881513883	-0.05347105241905081	0.5837868850146577	0.020698926721745114	-0.055084306804836225	0.5641614028753654	0.01373609262032549	-0.05776225584774752	0.5321007424274861	-0.0017778835444250962	-0.06344680035063777	0.4622830810018609	-0.023011742144276925	-0.051989820119430985
